G04 DipTrace 3.3.1.3*
G04 LEDboxV0.2.gbo*
%MOMM*%
G04 #@! TF.FileFunction,Legend,Bot*
G04 #@! TF.Part,Single*
%ADD10C,0.25*%
%ADD18C,0.33273*%
%ADD51C,0.31373*%
%ADD52C,0.39216*%
%FSLAX35Y35*%
G04*
G71*
G90*
G75*
G01*
G04 BotSilk*
%LPD*%
X36525963Y-11518770D2*
D18*
X-3473957D1*
Y16181200D1*
X36525963D1*
Y-11518770D1*
X3476310Y4063997D2*
D10*
X3976310D1*
Y3763997D1*
X3476310D1*
Y4063997D1*
Y3763997D2*
X3976310D1*
Y3463997D1*
X3476310D1*
Y3763997D1*
Y3463997D2*
X3976310D1*
Y3163997D1*
X3476310D1*
Y3463997D1*
Y3163997D2*
X3976310D1*
Y2863997D1*
X3476310D1*
Y3163997D1*
Y2863997D2*
X3976310D1*
Y2563997D1*
X3476310D1*
Y2863997D1*
Y2563997D2*
X3976310D1*
Y2263997D1*
X3476310D1*
Y2563997D1*
Y2263997D2*
X3976310D1*
Y1963997D1*
X3476310D1*
Y2263997D1*
Y1963997D2*
X3976310D1*
Y1663997D1*
X3476310D1*
Y1963997D1*
Y1663997D2*
X3976310D1*
Y1363997D1*
X3476310D1*
Y1663997D1*
X2276310Y4063997D2*
X3476310D1*
Y3763997D1*
X2276310D1*
Y4063997D1*
Y3763997D2*
X3476310D1*
Y3463997D1*
X2276310D1*
Y3763997D1*
Y3463997D2*
X3476310D1*
Y3163997D1*
X2276310D1*
Y3463997D1*
Y3163997D2*
X3476310D1*
Y2863997D1*
X2276310D1*
Y3163997D1*
Y2863997D2*
X3476310D1*
Y2563997D1*
X2276310D1*
Y2863997D1*
Y2563997D2*
X3476310D1*
Y2263997D1*
X2276310D1*
Y2563997D1*
Y2263997D2*
X3476310D1*
Y1963997D1*
X2276310D1*
Y2263997D1*
Y1963997D2*
X3476310D1*
Y1663997D1*
X2276310D1*
Y1963997D1*
Y1663997D2*
X3476310D1*
Y1363997D1*
X2276310D1*
Y1663997D1*
X1276313Y4063997D2*
X2276310D1*
Y3763997D1*
X1276313D1*
Y4063997D1*
Y3763997D2*
X2276310D1*
Y3463997D1*
X1276313D1*
Y3763997D1*
Y3463997D2*
X2276310D1*
Y3163997D1*
X1276313D1*
Y3463997D1*
Y3163997D2*
X2276310D1*
Y2863997D1*
X1276313D1*
Y3163997D1*
Y2863997D2*
X2276310D1*
Y2563997D1*
X1276313D1*
Y2863997D1*
Y2563997D2*
X2276310D1*
Y2263997D1*
X1276313D1*
Y2563997D1*
Y2263997D2*
X2276310D1*
Y1963997D1*
X1276313D1*
Y2263997D1*
Y1963997D2*
X2276310D1*
Y1663997D1*
X1276313D1*
Y1963997D1*
Y1663997D2*
X2276310D1*
Y1363997D1*
X1276313D1*
Y1663997D1*
X3750681Y3989243D2*
D51*
X3731139Y3999126D1*
X3701939Y4028101D1*
Y3824151D1*
X3784485Y3679584D2*
Y3689243D1*
X3774827Y3708784D1*
X3765168Y3718443D1*
X3745627Y3728101D1*
X3706768D1*
X3687452Y3718443D1*
X3677793Y3708784D1*
X3667910Y3689243D1*
Y3669926D1*
X3677793Y3650384D1*
X3697110Y3621409D1*
X3794368Y3524151D1*
X3658252D1*
X3774827Y3428101D2*
X3668135D1*
X3726310Y3350384D1*
X3697110D1*
X3677793Y3340726D1*
X3668135Y3331067D1*
X3658252Y3301867D1*
Y3282551D1*
X3668135Y3253351D1*
X3687452Y3233809D1*
X3716652Y3224151D1*
X3745852D1*
X3774827Y3233809D1*
X3784485Y3243692D1*
X3794368Y3263009D1*
X3701939Y2924151D2*
Y3128101D1*
X3799198Y2992209D1*
X3653422D1*
X3677793Y2828101D2*
X3774827D1*
X3784485Y2740726D1*
X3774827Y2750384D1*
X3745627Y2760267D1*
X3716652D1*
X3687452Y2750384D1*
X3667910Y2731067D1*
X3658252Y2701867D1*
Y2682551D1*
X3667910Y2653351D1*
X3687452Y2633809D1*
X3716652Y2624151D1*
X3745627D1*
X3774827Y2633809D1*
X3784485Y2643692D1*
X3794368Y2663009D1*
X3672852Y2499126D2*
X3682510Y2518443D1*
X3711710Y2528101D1*
X3731027D1*
X3760227Y2518443D1*
X3779768Y2489243D1*
X3789427Y2440726D1*
Y2392209D1*
X3779768Y2353351D1*
X3760227Y2333809D1*
X3731027Y2324151D1*
X3721368D1*
X3692393Y2333809D1*
X3672852Y2353351D1*
X3663193Y2382551D1*
Y2392209D1*
X3672852Y2421409D1*
X3692393Y2440726D1*
X3721368Y2450384D1*
X3731027D1*
X3760227Y2440726D1*
X3779768Y2421409D1*
X3789427Y2392209D1*
X3755510Y2024151D2*
X3658252Y2228101D1*
X3794368D1*
X3745739Y1928101D2*
X3774715Y1918443D1*
X3784598Y1899126D1*
Y1879584D1*
X3774715Y1860267D1*
X3755398Y1850384D1*
X3716539Y1840726D1*
X3687339Y1831067D1*
X3668022Y1811526D1*
X3658364Y1792209D1*
Y1763009D1*
X3668022Y1743692D1*
X3677681Y1733809D1*
X3706881Y1724151D1*
X3745739D1*
X3774715Y1733809D1*
X3784598Y1743692D1*
X3794256Y1763009D1*
Y1792209D1*
X3784598Y1811526D1*
X3765056Y1831067D1*
X3736081Y1840726D1*
X3697222Y1850384D1*
X3677681Y1860267D1*
X3668022Y1879584D1*
Y1899126D1*
X3677681Y1918443D1*
X3706881Y1928101D1*
X3745739D1*
X3663081Y1560267D2*
X3672964Y1531067D1*
X3692281Y1511526D1*
X3721481Y1501867D1*
X3731139D1*
X3760339Y1511526D1*
X3779656Y1531067D1*
X3789539Y1560267D1*
Y1569926D1*
X3779656Y1599126D1*
X3760339Y1618443D1*
X3731139Y1628101D1*
X3721481D1*
X3692281Y1618443D1*
X3672964Y1599126D1*
X3663081Y1560267D1*
Y1511526D1*
X3672964Y1463009D1*
X3692281Y1433809D1*
X3721481Y1424151D1*
X3740798D1*
X3769998Y1433809D1*
X3779656Y1453351D1*
X3148060Y4028326D2*
Y3824151D1*
X3080001D1*
X3050801Y3834034D1*
X3031260Y3853351D1*
X3021601Y3872892D1*
X3011943Y3901867D1*
Y3950609D1*
X3021601Y3979809D1*
X3031260Y3999126D1*
X3050801Y4018667D1*
X3080001Y4028326D1*
X3148060D1*
X2803422Y3979809D2*
X2813081Y3999126D1*
X2832622Y4018667D1*
X2851939Y4028326D1*
X2890798D1*
X2910339Y4018667D1*
X2929656Y3999126D1*
X2939539Y3979809D1*
X2949198Y3950609D1*
Y3901867D1*
X2939539Y3872892D1*
X2929656Y3853351D1*
X2910339Y3834034D1*
X2890798Y3824151D1*
X2851939D1*
X2832622Y3834034D1*
X2813081Y3853351D1*
X2803422Y3872892D1*
X2740677Y4028326D2*
Y3824151D1*
X2672619D1*
X2643419Y3834034D1*
X2623877Y3853351D1*
X2614219Y3872892D1*
X2604560Y3901867D1*
Y3950609D1*
X2614219Y3979809D1*
X2623877Y3999126D1*
X2643419Y4018667D1*
X2672619Y4028326D1*
X2740677D1*
X3043799Y3631067D2*
X2956424D1*
X2927224Y3640951D1*
X2917341Y3650609D1*
X2907683Y3669926D1*
Y3689467D1*
X2917341Y3708784D1*
X2927224Y3718667D1*
X2956424Y3728326D1*
X3043799D1*
Y3524151D1*
X2975741Y3631067D2*
X2907683Y3524151D1*
X2844937Y3728326D2*
X2708821Y3524151D1*
Y3728326D2*
X2844937Y3524151D1*
X2975741Y3428326D2*
Y3224151D1*
X3043799Y3428326D2*
X2907683D1*
X2844937D2*
X2708821Y3224151D1*
Y3428326D2*
X2844937Y3224151D1*
X3143230Y3128326D2*
Y2924151D1*
X3075172D1*
X3045972Y2934034D1*
X3026430Y2953351D1*
X3016772Y2972892D1*
X3007114Y3001867D1*
Y3050609D1*
X3016772Y3079809D1*
X3026430Y3099126D1*
X3045972Y3118667D1*
X3075172Y3128326D1*
X3143230D1*
X2876310D2*
Y2924151D1*
X2944368Y3128326D2*
X2808252D1*
X2745506Y3031067D2*
X2658131D1*
X2628931Y3040951D1*
X2619048Y3050609D1*
X2609390Y3069926D1*
Y3089467D1*
X2619048Y3108784D1*
X2628931Y3118667D1*
X2658131Y3128326D1*
X2745506D1*
Y2924151D1*
X2677448Y3031067D2*
X2609390Y2924151D1*
X3002284Y2779809D2*
X3011943Y2799126D1*
X3031484Y2818667D1*
X3050801Y2828326D1*
X3089660D1*
X3109201Y2818667D1*
X3128518Y2799126D1*
X3138401Y2779809D1*
X3148060Y2750609D1*
Y2701867D1*
X3138401Y2672892D1*
X3128518Y2653351D1*
X3109201Y2634034D1*
X3089660Y2624151D1*
X3050801D1*
X3031484Y2634034D1*
X3011943Y2653351D1*
X3002284Y2672892D1*
Y2701867D1*
X3050801D1*
X2803422Y2828326D2*
Y2624151D1*
X2939539Y2828326D1*
Y2624151D1*
X2740677Y2828326D2*
Y2624151D1*
X2672619D1*
X2643419Y2634034D1*
X2623877Y2653351D1*
X2614219Y2672892D1*
X2604560Y2701867D1*
Y2750609D1*
X2614219Y2779809D1*
X2623877Y2799126D1*
X2643419Y2818667D1*
X2672619Y2828326D1*
X2740677D1*
X3143230Y2528326D2*
Y2324151D1*
X3075172D1*
X3045972Y2334034D1*
X3026430Y2353351D1*
X3016772Y2372892D1*
X3007114Y2401867D1*
Y2450609D1*
X3016772Y2479809D1*
X3026430Y2499126D1*
X3045972Y2518667D1*
X3075172Y2528326D1*
X3143230D1*
X2808252Y2499126D2*
X2827568Y2518667D1*
X2856768Y2528326D1*
X2895627D1*
X2924827Y2518667D1*
X2944368Y2499126D1*
Y2479809D1*
X2934485Y2460267D1*
X2924827Y2450609D1*
X2905510Y2440951D1*
X2847110Y2421409D1*
X2827568Y2411751D1*
X2817910Y2401867D1*
X2808252Y2382551D1*
Y2353351D1*
X2827568Y2334034D1*
X2856768Y2324151D1*
X2895627D1*
X2924827Y2334034D1*
X2944368Y2353351D1*
X2745506Y2431067D2*
X2658131D1*
X2628931Y2440951D1*
X2619048Y2450609D1*
X2609390Y2469926D1*
Y2489467D1*
X2619048Y2508784D1*
X2628931Y2518667D1*
X2658131Y2528326D1*
X2745506D1*
Y2324151D1*
X2677448Y2431067D2*
X2609390Y2324151D1*
X3143230Y2131067D2*
X3055855D1*
X3026655Y2140951D1*
X3016772Y2150609D1*
X3007114Y2169926D1*
Y2189467D1*
X3016772Y2208784D1*
X3026655Y2218667D1*
X3055855Y2228326D1*
X3143230D1*
Y2024151D1*
X3075172Y2131067D2*
X3007114Y2024151D1*
X2876310Y2228326D2*
Y2024151D1*
X2944368Y2228326D2*
X2808252D1*
X2609390Y2199126D2*
X2628706Y2218667D1*
X2657906Y2228326D1*
X2696765D1*
X2725965Y2218667D1*
X2745506Y2199126D1*
Y2179809D1*
X2735623Y2160267D1*
X2725965Y2150609D1*
X2706648Y2140951D1*
X2648248Y2121409D1*
X2628706Y2111751D1*
X2619048Y2101867D1*
X2609390Y2082551D1*
Y2053351D1*
X2628706Y2034034D1*
X2657906Y2024151D1*
X2696765D1*
X2725965Y2034034D1*
X2745506Y2053351D1*
X3002284Y1879809D2*
X3011943Y1899126D1*
X3031484Y1918667D1*
X3050801Y1928326D1*
X3089660D1*
X3109201Y1918667D1*
X3128518Y1899126D1*
X3138401Y1879809D1*
X3148060Y1850609D1*
Y1801867D1*
X3138401Y1772892D1*
X3128518Y1753351D1*
X3109201Y1734034D1*
X3089660Y1724151D1*
X3050801D1*
X3031484Y1734034D1*
X3011943Y1753351D1*
X3002284Y1772892D1*
X2871481Y1928326D2*
Y1724151D1*
X2939539Y1928326D2*
X2803422D1*
X2604560Y1899126D2*
X2623877Y1918667D1*
X2653077Y1928326D1*
X2691936D1*
X2721136Y1918667D1*
X2740677Y1899126D1*
Y1879809D1*
X2730794Y1860267D1*
X2721136Y1850609D1*
X2701819Y1840951D1*
X2643419Y1821409D1*
X2623877Y1811751D1*
X2614219Y1801867D1*
X2604560Y1782551D1*
Y1753351D1*
X2623877Y1734034D1*
X2653077Y1724151D1*
X2691936D1*
X2721136Y1734034D1*
X2740677Y1753351D1*
X3179432Y1531067D2*
X3092057D1*
X3062857Y1540951D1*
X3052974Y1550609D1*
X3043315Y1569926D1*
Y1589467D1*
X3052974Y1608784D1*
X3062857Y1618667D1*
X3092057Y1628326D1*
X3179432D1*
Y1424151D1*
X3111374Y1531067D2*
X3043315Y1424151D1*
X2980570Y1628326D2*
Y1424151D1*
X2781708Y1628326D2*
Y1424151D1*
X2917825Y1628326D1*
Y1424151D1*
X2573188Y1579809D2*
X2582846Y1599126D1*
X2602388Y1618667D1*
X2621705Y1628326D1*
X2660563D1*
X2680105Y1618667D1*
X2699422Y1599126D1*
X2709305Y1579809D1*
X2718963Y1550609D1*
Y1501867D1*
X2709305Y1472892D1*
X2699422Y1453351D1*
X2680105Y1434034D1*
X2660563Y1424151D1*
X2621705D1*
X2602388Y1434034D1*
X2582846Y1453351D1*
X2573188Y1472892D1*
Y1501867D1*
X2621705D1*
X2043120Y4028326D2*
Y3824151D1*
X1975061D1*
X1945861Y3834034D1*
X1926320Y3853351D1*
X1916661Y3872892D1*
X1907003Y3901867D1*
Y3950609D1*
X1916661Y3979809D1*
X1926320Y3999126D1*
X1945861Y4018667D1*
X1975061Y4028326D1*
X2043120D1*
X1698482Y3979809D2*
X1708141Y3999126D1*
X1727682Y4018667D1*
X1746999Y4028326D1*
X1785858D1*
X1805399Y4018667D1*
X1824716Y3999126D1*
X1834599Y3979809D1*
X1844258Y3950609D1*
Y3901867D1*
X1834599Y3872892D1*
X1824716Y3853351D1*
X1805399Y3834034D1*
X1785858Y3824151D1*
X1746999D1*
X1727682Y3834034D1*
X1708141Y3853351D1*
X1698482Y3872892D1*
X1509503Y4028326D2*
X1635737D1*
Y3824151D1*
X1509503D1*
X1635737Y3931067D2*
X1558020D1*
X2043120Y3728326D2*
Y3524151D1*
X1975061D1*
X1945861Y3534034D1*
X1926320Y3553351D1*
X1916661Y3572892D1*
X1907003Y3601867D1*
Y3650609D1*
X1916661Y3679809D1*
X1926320Y3699126D1*
X1945861Y3718667D1*
X1975061Y3728326D1*
X2043120D1*
X1698482Y3679809D2*
X1708141Y3699126D1*
X1727682Y3718667D1*
X1746999Y3728326D1*
X1785858D1*
X1805399Y3718667D1*
X1824716Y3699126D1*
X1834599Y3679809D1*
X1844258Y3650609D1*
Y3601867D1*
X1834599Y3572892D1*
X1824716Y3553351D1*
X1805399Y3534034D1*
X1785858Y3524151D1*
X1746999D1*
X1727682Y3534034D1*
X1708141Y3553351D1*
X1698482Y3572892D1*
X1509503Y3728326D2*
X1635737D1*
Y3524151D1*
X1509503D1*
X1635737Y3631067D2*
X1558020D1*
X2038291Y3428326D2*
Y3224151D1*
X1970232D1*
X1941032Y3234034D1*
X1921491Y3253351D1*
X1911832Y3272892D1*
X1902174Y3301867D1*
Y3350609D1*
X1911832Y3379809D1*
X1921491Y3399126D1*
X1941032Y3418667D1*
X1970232Y3428326D1*
X2038291D1*
X1771370D2*
Y3224151D1*
X1839429Y3428326D2*
X1703312D1*
X1514333D2*
X1640567D1*
Y3224151D1*
X1514333D1*
X1640567Y3331067D2*
X1562850D1*
X2038291Y3128326D2*
Y2924151D1*
X1970232D1*
X1941032Y2934034D1*
X1921491Y2953351D1*
X1911832Y2972892D1*
X1902174Y3001867D1*
Y3050609D1*
X1911832Y3079809D1*
X1921491Y3099126D1*
X1941032Y3118667D1*
X1970232Y3128326D1*
X2038291D1*
X1771370D2*
Y2924151D1*
X1839429Y3128326D2*
X1703312D1*
X1514333D2*
X1640567D1*
Y2924151D1*
X1514333D1*
X1640567Y3031067D2*
X1562850D1*
X2043120Y2528326D2*
Y2324151D1*
X1975061D1*
X1945861Y2334034D1*
X1926320Y2353351D1*
X1916661Y2372892D1*
X1907003Y2401867D1*
Y2450609D1*
X1916661Y2479809D1*
X1926320Y2499126D1*
X1945861Y2518667D1*
X1975061Y2528326D1*
X2043120D1*
X1698482Y2479809D2*
X1708141Y2499126D1*
X1727682Y2518667D1*
X1746999Y2528326D1*
X1785858D1*
X1805399Y2518667D1*
X1824716Y2499126D1*
X1834599Y2479809D1*
X1844258Y2450609D1*
Y2401867D1*
X1834599Y2372892D1*
X1824716Y2353351D1*
X1805399Y2334034D1*
X1785858Y2324151D1*
X1746999D1*
X1727682Y2334034D1*
X1708141Y2353351D1*
X1698482Y2372892D1*
X1509503Y2528326D2*
X1635737D1*
Y2324151D1*
X1509503D1*
X1635737Y2431067D2*
X1558020D1*
X2038291Y2228326D2*
Y2024151D1*
X1970232D1*
X1941032Y2034034D1*
X1921491Y2053351D1*
X1911832Y2072892D1*
X1902174Y2101867D1*
Y2150609D1*
X1911832Y2179809D1*
X1921491Y2199126D1*
X1941032Y2218667D1*
X1970232Y2228326D1*
X2038291D1*
X1771370D2*
Y2024151D1*
X1839429Y2228326D2*
X1703312D1*
X1514333D2*
X1640567D1*
Y2024151D1*
X1514333D1*
X1640567Y2131067D2*
X1562850D1*
X2043120Y1928326D2*
Y1724151D1*
X1975061D1*
X1945861Y1734034D1*
X1926320Y1753351D1*
X1916661Y1772892D1*
X1907003Y1801867D1*
Y1850609D1*
X1916661Y1879809D1*
X1926320Y1899126D1*
X1945861Y1918667D1*
X1975061Y1928326D1*
X2043120D1*
X1698482Y1879809D2*
X1708141Y1899126D1*
X1727682Y1918667D1*
X1746999Y1928326D1*
X1785858D1*
X1805399Y1918667D1*
X1824716Y1899126D1*
X1834599Y1879809D1*
X1844258Y1850609D1*
Y1801867D1*
X1834599Y1772892D1*
X1824716Y1753351D1*
X1805399Y1734034D1*
X1785858Y1724151D1*
X1746999D1*
X1727682Y1734034D1*
X1708141Y1753351D1*
X1698482Y1772892D1*
X1509503Y1928326D2*
X1635737D1*
Y1724151D1*
X1509503D1*
X1635737Y1831067D2*
X1558020D1*
X2043120Y1628326D2*
Y1424151D1*
X1975061D1*
X1945861Y1434034D1*
X1926320Y1453351D1*
X1916661Y1472892D1*
X1907003Y1501867D1*
Y1550609D1*
X1916661Y1579809D1*
X1926320Y1599126D1*
X1945861Y1618667D1*
X1975061Y1628326D1*
X2043120D1*
X1698482Y1579809D2*
X1708141Y1599126D1*
X1727682Y1618667D1*
X1746999Y1628326D1*
X1785858D1*
X1805399Y1618667D1*
X1824716Y1599126D1*
X1834599Y1579809D1*
X1844258Y1550609D1*
Y1501867D1*
X1834599Y1472892D1*
X1824716Y1453351D1*
X1805399Y1434034D1*
X1785858Y1424151D1*
X1746999D1*
X1727682Y1434034D1*
X1708141Y1453351D1*
X1698482Y1472892D1*
X1509503Y1628326D2*
X1635737D1*
Y1424151D1*
X1509503D1*
X1635737Y1531067D2*
X1558020D1*
X3032372Y4234364D2*
D52*
Y4489583D1*
X3129518Y4234364D1*
X3226664Y4489583D1*
Y4234364D1*
X2621974Y4556125D2*
X2646401Y4531979D1*
X2670547Y4495479D1*
X2694974Y4446906D1*
X2707047Y4385979D1*
Y4337406D1*
X2694974Y4276760D1*
X2670547Y4228187D1*
X2646401Y4191687D1*
X2621974Y4167541D1*
X2543543Y4489583D2*
Y4234364D1*
X2458470D1*
X2421970Y4246718D1*
X2397543Y4270864D1*
X2385470Y4295291D1*
X2373397Y4331510D1*
Y4392437D1*
X2385470Y4428937D1*
X2397543Y4453083D1*
X2421970Y4477510D1*
X2458470Y4489583D1*
X2543543D1*
X2209892D2*
Y4234364D1*
X2294965Y4489583D2*
X2124819D1*
X1888596D2*
X2046388D1*
Y4234364D1*
X1888596D1*
X2046388Y4368010D2*
X1949242D1*
X1810164Y4556125D2*
X1785737Y4531979D1*
X1761591Y4495479D1*
X1737164Y4446906D1*
X1725091Y4385979D1*
Y4337406D1*
X1737164Y4276760D1*
X1761591Y4228187D1*
X1785737Y4191687D1*
X1810164Y4167541D1*
X3060321Y1266957D2*
X3218395D1*
Y1011737D1*
Y1145383D2*
X3121248D1*
X2649924Y1333499D2*
X2674351Y1309353D1*
X2698497Y1272853D1*
X2722924Y1224280D1*
X2734997Y1163353D1*
Y1114780D1*
X2722924Y1054133D1*
X2698497Y1005560D1*
X2674351Y969060D1*
X2649924Y944914D1*
X2571493Y1266957D2*
Y1011737D1*
X2486420D1*
X2449920Y1024091D1*
X2425493Y1048237D1*
X2413420Y1072664D1*
X2401347Y1108883D1*
Y1169810D1*
X2413420Y1206310D1*
X2425493Y1230457D1*
X2449920Y1254883D1*
X2486420Y1266957D1*
X2571493D1*
X2140696Y1206310D2*
X2152769Y1230457D1*
X2177196Y1254883D1*
X2201342Y1266957D1*
X2249915D1*
X2274342Y1254883D1*
X2298488Y1230457D1*
X2310842Y1206310D1*
X2322915Y1169810D1*
Y1108883D1*
X2310842Y1072664D1*
X2298488Y1048237D1*
X2274342Y1024091D1*
X2249915Y1011737D1*
X2201342D1*
X2177196Y1024091D1*
X2152769Y1048237D1*
X2140696Y1072664D1*
X1904472Y1266957D2*
X2062265D1*
Y1011737D1*
X1904472D1*
X2062265Y1145383D2*
X1965118D1*
X1826041Y1333499D2*
X1801614Y1309353D1*
X1777468Y1272853D1*
X1753041Y1224280D1*
X1740968Y1163353D1*
Y1114780D1*
X1753041Y1054133D1*
X1777468Y1005560D1*
X1801614Y969060D1*
X1826041Y944914D1*
M02*
