G04 DipTrace 3.3.1.3*
G04 LEDboxV0.2.gts*
%MOMM*%
G04 #@! TF.FileFunction,Soldermask,Top*
G04 #@! TF.Part,Single*
%ADD23C,5.08*%
%ADD29C,4.0*%
%ADD36R,0.90015X1.10015*%
%ADD38R,1.10015X1.70015*%
%ADD40C,2.20015*%
%ADD44C,2.07975*%
%ADD46R,2.07975X2.07975*%
%ADD48R,3.20015X4.20015*%
%FSLAX35Y35*%
G04*
G71*
G90*
G75*
G01*
G04 TopMask*
%LPD*%
D48*
X1031873Y1682750D3*
D46*
X3044750Y793750D3*
D44*
X2767750D3*
X2490750D3*
X2213750D3*
X1936750D3*
X2905750Y509750D3*
X2628750D3*
X2352750D3*
X2075750D3*
D23*
X3740750Y651750D3*
X1240750D3*
D46*
X1936750Y4730753D3*
D44*
X2213750D3*
X2490750D3*
X2767750D3*
X3044750D3*
X2075750Y5014753D3*
X2352750D3*
X2628750D3*
X2905750D3*
D23*
X1240750Y4872753D3*
X3740750D3*
D40*
X2031003Y3067843D3*
X1574593D3*
X3177973Y1585520D3*
X2717597D3*
X2257220D3*
X1796847D3*
X3400217Y3067843D3*
X2943813D3*
X2487407D3*
D38*
X3101937Y3762373D3*
Y4072373D3*
X3271937D3*
Y3762373D3*
X2165313D3*
Y4072373D3*
X2335313D3*
Y3762373D3*
D36*
X3276563Y3468687D3*
Y3338687D3*
X3087560Y3468687D3*
Y3338687D3*
X2355813Y3468687D3*
Y3338687D3*
X2165313D3*
Y3468687D3*
D48*
X1031873Y3857623D3*
D29*
X4300000Y4800000D3*
Y700000D3*
X700000Y4800000D3*
Y700000D3*
M02*
