G04 DipTrace 3.3.1.3*
G04 LEDboxV0.2.gtl*
%MOMM*%
G04 #@! TF.FileFunction,Copper,L1,Top*
G04 #@! TF.Part,Single*
G04 #@! TA.AperFunction,Conductor*
%ADD14C,0.381*%
%ADD15C,0.254*%
G04 #@! TA.AperFunction,ComponentPad*
%ADD19R,3.0X4.0*%
%ADD21R,1.8796X1.8796*%
%ADD22C,1.8796*%
%ADD23C,5.08*%
%ADD24C,2.0*%
%ADD25R,0.9X1.5*%
%ADD26R,0.7X0.9*%
G04 #@! TA.AperFunction,ViaPad*
%ADD27C,1.27*%
%FSLAX35Y35*%
G04*
G71*
G90*
G75*
G01*
G04 Top*
%LPD*%
X2943813Y3067843D2*
D14*
Y975317D1*
X2762247Y793750D1*
X2767750D1*
X2943813Y3067843D2*
X2936877Y3074780D1*
Y3349627D1*
Y4508500D1*
X2714623Y4730753D1*
X2767750D1*
X3271937Y4072373D2*
X3276560D1*
Y4279937D1*
X3047997Y4508500D1*
X2936877D1*
X3087560Y3338687D2*
X3076620Y3349627D1*
X2936877D1*
X2487407Y3067843D2*
X2498687Y3056563D1*
Y793750D1*
X2490750D1*
X2487407Y3067843D2*
X2500590Y3050137D1*
X2490750Y4072373D1*
Y4730753D1*
X2165313Y3338687D2*
Y3254373D1*
X2351843Y3067843D1*
X2487407D1*
X2335313Y4072373D2*
X2490750D1*
X1936750Y793750D2*
X1905003D1*
X1574593Y1124160D1*
Y3067843D1*
Y4368597D1*
X1936750Y4730753D1*
X3070187Y2333627D2*
X3292437D1*
X1577937D2*
X1911310D1*
X2149440D2*
X2371687D1*
X2609810D2*
X2832060D1*
X2355813Y3338687D2*
X2371687D1*
Y3222623D1*
X3101937Y4072373D2*
X3048000Y4126310D1*
Y4270373D1*
X3276563Y3338687D2*
X3292437Y3322813D1*
Y3238500D1*
X2165313Y4072373D2*
X2143127Y4094560D1*
Y4238623D1*
X3271937Y3762373D2*
X3276563Y3757747D1*
Y3468687D1*
X3400217Y3067843D2*
X3403563Y3064497D1*
Y1133440D1*
X3063873Y793750D1*
X3044750D1*
X3400217Y3067843D2*
D15*
X3403560Y3071187D1*
Y4406940D1*
X3079747Y4730753D1*
X3044750D1*
X2031003Y3067843D2*
D14*
X2022437D1*
Y1009693D1*
X2238380Y793750D1*
X2213750D1*
X2031003Y3067843D2*
Y4523377D1*
X2238380Y4730753D1*
X2213750D1*
X3101937Y3762373D2*
X3087560Y3747997D1*
Y3468687D1*
X2335313Y3762373D2*
X2355813Y3741873D1*
Y3468687D1*
X2165313D2*
Y3762373D1*
D27*
X2371687Y3222623D3*
X3048000Y4270373D3*
X3292437Y3238500D3*
X2143127Y4238623D3*
X3070187Y2333627D3*
X2832060D3*
X2609810D3*
X2371687D3*
X2149440D3*
X1911310D3*
X3292437D3*
X1577937D3*
D19*
X1031873Y1682750D3*
D21*
X3044750Y793750D3*
D22*
X2767750D3*
X2490750D3*
X2213750D3*
X1936750D3*
X2905750Y509750D3*
X2628750D3*
X2352750D3*
X2075750D3*
D23*
X3740750Y651750D3*
X1240750D3*
D21*
X1936750Y4730753D3*
D22*
X2213750D3*
X2490750D3*
X2767750D3*
X3044750D3*
X2075750Y5014753D3*
X2352750D3*
X2628750D3*
X2905750D3*
D23*
X1240750Y4872753D3*
X3740750D3*
D24*
X2031003Y3067843D3*
X1574593D3*
X3177973Y1585520D3*
X2717597D3*
X2257220D3*
X1796847D3*
X3400217Y3067843D3*
X2943813D3*
X2487407D3*
D25*
X3101937Y3762373D3*
Y4072373D3*
X3271937D3*
Y3762373D3*
X2165313D3*
Y4072373D3*
X2335313D3*
Y3762373D3*
D26*
X3276563Y3468687D3*
Y3338687D3*
X3087560Y3468687D3*
Y3338687D3*
X2355813Y3468687D3*
Y3338687D3*
X2165313D3*
Y3468687D3*
D19*
X1031873Y3857623D3*
M02*
