M48
METRIC,0000.00
T01C0.762
T02C0.9
T03C1.016
T04C3.302
T05C4.0
%
T01
X+003070Y+002334
X+003292Y+002334
X+002832Y+002334
X+002610Y+002334
X+002372Y+002334
X+002149Y+002334
X+001911Y+002334
X+001578Y+002334
X+002372Y+003223
X+003292Y+003238
X+003048Y+004270
X+002143Y+004239
T02
X+001032Y+001683
X+001797Y+001586
X+002257Y+001586
X+002718Y+001586
X+003178Y+001586
X+003400Y+003068
X+002944Y+003068
X+002487Y+003068
X+002031Y+003068
X+001575Y+003068
X+001032Y+003858
T03
X+003045Y+000794
X+002768Y+000794
X+002491Y+000794
X+002214Y+000794
X+001937Y+000794
X+002076Y+000510
X+002353Y+000510
X+002629Y+000510
X+002906Y+000510
X+002768Y+004731
X+002491Y+004731
X+002214Y+004731
X+001937Y+004731
X+002076Y+005015
X+002353Y+005015
X+002629Y+005015
X+002906Y+005015
X+003045Y+004731
T04
X+003741Y+000652
X+001241Y+000652
X+001241Y+004873
X+003741Y+004873
T05
X+004300Y+004800
X+000700Y+004800
X+000700Y+000700
X+004300Y+000700
T00
M30
